HIERARCHY
ROOT Hips
{
	OFFSET -3.958830 18.904000 13.208200
	CHANNELS 6 Xposition Yposition Zposition Zrotation Yrotation Xrotation 
	JOINT LHipJoint
	{
		OFFSET 0.000000 0.000000 0.000000
		CHANNELS 3 Zrotation Yrotation Xrotation
		JOINT LeftUpLeg
		{
			OFFSET 1.800000 -1.400000 0.085000
			CHANNELS 3 Zrotation Yrotation Xrotation
			JOINT LeftLeg
			{
				OFFSET 2.215000 -6.000000 0.000000
				CHANNELS 3 Zrotation Yrotation Xrotation
				JOINT LeftFoot
				{
					OFFSET 2.500000 -6.900000 0.000000
					CHANNELS 3 Zrotation Yrotation Xrotation
					JOINT LeftToeBase
					{
						OFFSET 0.200000 -0.500000 1.950000
						CHANNELS 3 Zrotation Yrotation Xrotation
						End Site
						{
							OFFSET 0.000000 0.000000 0.000000
						}
					}
				}
			}
		}
	}
	JOINT RHipJoint
	{
		OFFSET 0.000000 0.000000 0.000000
		CHANNELS 3 Zrotation Yrotation Xrotation
		JOINT RightUpLeg
		{
			OFFSET -1.800000 -1.400000 0.085000
			CHANNELS 3 Zrotation Yrotation Xrotation
			JOINT RightLeg
			{
				OFFSET -2.215000 -6.000000 0.000000
				CHANNELS 3 Zrotation Yrotation Xrotation
				JOINT RightFoot
				{
					OFFSET -2.500000 -6.900000 0.000000
					CHANNELS 3 Zrotation Yrotation Xrotation
					JOINT RightToeBase
					{
						OFFSET -0.200000 -0.500000 1.950000
						CHANNELS 3 Zrotation Yrotation Xrotation
						End Site
						{
							OFFSET 0.000000 0.000000 0.000000
						}
					}
				}
			}
		}
	}
	JOINT LowerBack
	{
		OFFSET 0.000000 0.000000 0.000000
		CHANNELS 3 Zrotation Yrotation Xrotation
		JOINT Spine
		{
			OFFSET -0.087000 1.940000 -0.288900
			CHANNELS 3 Zrotation Yrotation Xrotation
			JOINT Spine1
			{
				OFFSET 0.000000 1.950000 0.060000
				CHANNELS 3 Zrotation Yrotation Xrotation
				JOINT Neck
				{
					OFFSET 0.000000 0.000000 0.000000
					CHANNELS 3 Zrotation Yrotation Xrotation
					JOINT Neck1
					{
						OFFSET 0.000000 1.600000 0.340000
						CHANNELS 3 Zrotation Yrotation Xrotation
						JOINT Head
						{
							OFFSET 0.000000 1.667000 -0.240000
							CHANNELS 3 Zrotation Yrotation Xrotation
							End Site
							{
								OFFSET 0.000000 0.000000 0.000000
							}
						}
					}
				}
				JOINT LeftShoulder
				{
					OFFSET 0.000000 0.000000 0.000000
					CHANNELS 3 Zrotation Yrotation Xrotation
					JOINT LeftArm
					{
						OFFSET 2.700000 1.550000 -0.730000
						CHANNELS 3 Zrotation Yrotation Xrotation
						JOINT LeftForeArm
						{
							OFFSET 5.450000 0.000000 0.000000
							CHANNELS 3 Zrotation Yrotation Xrotation
							JOINT LeftHand
							{
								OFFSET 3.450000 0.000000 0.000000
								CHANNELS 3 Zrotation Yrotation Xrotation
								JOINT LeftHandIndex1
								{
									OFFSET 0.750000 0.000000 0.000000
									CHANNELS 3 Zrotation Yrotation Xrotation
									End Site
									{
										OFFSET 0.000000 0.000000 0.000000
									}
								}
							}
						}
					}
				}
				JOINT RightShoulder
				{
					OFFSET 0.000000 0.000000 0.000000
					CHANNELS 3 Zrotation Yrotation Xrotation
					JOINT RightArm
					{
						OFFSET -2.700000 1.550000 -0.730000
						CHANNELS 3 Zrotation Yrotation Xrotation
						JOINT RightForeArm
						{
							OFFSET -5.450000 0.000000 0.000000
							CHANNELS 3 Zrotation Yrotation Xrotation
							JOINT RightHand
							{
								OFFSET -3.450000 0.000000 0.000000
								CHANNELS 3 Zrotation Yrotation Xrotation
								JOINT RightHandIndex1
								{
									OFFSET -0.750000 0.000000 0.000000
									CHANNELS 3 Zrotation Yrotation Xrotation
									End Site
									{
										OFFSET 0.000000 0.000000 0.000000
									}
								}
							}
						}
					}
				}
			}
		}
	}
}
MOTION
Frames: 10
Frame Time: 0.016667
-3.205520 16.632470 -1.460330 -12.322611 -52.378748 -2.955367 -14.934801 12.450305 2.940367 4.909741 -0.522638 -28.876788 -0.091598 4.213763 14.533562 -0.795316 2.898294 3.594984 0.590820 0.034860 0.653850 18.389652 -12.189720 2.999541 -2.110677 6.331913 2.690406 3.787740 -8.427820 45.273687 -1.210313 -8.119474 1.744618 0.059160 0.291960 0.442910 -4.704890 1.948290 -6.829649 8.001405 14.083790 8.347587 -6.982777 15.017979 10.612376 3.781341 2.704860 -8.871172 4.986776 5.667813 46.838987 2.230230 8.296170 0.508130 -6.244075 4.198080 1.420673 -9.623071 9.676600 -3.065074 11.814659 -19.411098 -1.756507 -3.873227 3.260417 0.581660 0.243760 -0.000690 0.247730 -1.874181 -3.135664 6.157463 17.521031 -12.379501 -6.431053 20.558320 51.901366 8.004017 1.857289 -2.212461 -0.189380 -0.026420 -0.228820 -0.262780 
-3.229350 16.603690 -1.422860 -12.157271 -53.538821 -3.409296 -14.944272 12.493454 2.914035 5.276567 -0.275997 -28.901745 -0.443886 4.638813 16.037571 -0.706310 3.039132 3.551108 0.601330 0.093110 0.611450 18.366182 -12.240806 2.980091 -2.683933 6.610919 2.812161 3.469420 -8.367778 46.034125 -1.227339 -8.213654 1.757525 0.072920 0.312000 0.419240 -4.756510 1.994591 -6.782657 8.140542 14.192156 8.030394 -6.716309 15.086533 10.716536 3.674011 2.461171 -8.918148 4.546710 5.986332 46.908623 2.846700 8.223620 1.368330 -5.918927 4.448394 1.633264 -9.775761 11.242455 -3.408841 11.970107 -21.135779 -1.774921 -3.828513 3.321778 0.533410 0.251990 -0.001350 0.297540 -1.959098 -3.102546 6.104286 15.843186 -12.896421 -6.011968 19.907272 50.364279 7.501594 1.876154 -2.227391 -0.164960 -0.012390 -0.267750 -0.216250 
-3.277270 16.513210 -1.336500 -13.150387 -56.169005 -3.807763 -14.881100 12.727393 2.963355 6.170283 0.253411 -29.163299 -0.507482 5.596940 20.094921 -0.678859 3.596447 3.349634 0.566350 0.029700 0.612000 18.339707 -12.332732 3.054868 -3.653596 7.067745 3.567693 3.335362 -8.605256 47.203927 -1.260334 -8.310057 1.753024 0.044790 0.324150 0.329670 -4.999395 1.827162 -6.985097 11.121602 13.012004 10.290103 -8.142208 14.546606 8.885780 3.284866 0.050591 -9.520392 -0.343887 8.382940 48.451987 4.955840 7.765480 1.000080 -3.661136 6.401378 1.706509 -10.984773 13.406728 -3.748136 12.799712 -20.208139 -1.822485 -3.806686 3.163727 0.631610 0.188050 -0.003240 0.282100 -3.931945 -2.859357 6.572787 13.164736 -14.370149 -5.627876 19.840294 51.511091 8.002941 1.876008 -2.186327 -0.246360 0.089000 -0.243810 -0.242570 
-3.327970 16.396630 -1.247490 -15.260873 -59.990285 -2.825419 -14.824123 13.029900 3.084067 7.720812 1.040605 -30.336668 0.155487 6.867279 25.594297 -0.549559 4.510124 2.995508 0.481620 -0.055590 0.466200 18.313766 -12.291805 3.135298 -3.687428 7.893498 3.606211 2.072510 -8.205961 49.988021 -1.274370 -8.515699 1.697678 0.008700 0.415980 0.258920 -5.241339 1.365035 -7.258900 14.231375 10.583741 13.074191 -9.662356 12.646032 3.650689 2.007035 -3.617761 -9.880975 -7.442035 13.687974 48.351247 10.597610 7.039070 4.072240 0.869137 10.652511 1.840239 -13.240371 16.057603 -4.072519 9.194586 -16.098952 -1.231225 -3.809189 3.086656 0.650310 0.159210 -0.069790 0.292380 -6.477401 -3.282456 6.457066 10.720664 -11.260634 -4.068149 18.444800 54.113204 8.739424 1.916769 -2.206707 -0.306100 0.142690 -0.173530 -0.201970 
-3.359810 16.312120 -1.173250 -15.925214 -62.660071 -3.553581 -14.876251 13.234623 3.147962 8.495726 1.658205 -30.905413 0.881454 8.022530 30.722937 -0.306627 5.294373 2.726949 0.571360 0.102830 0.507320 18.229150 -12.239746 3.083185 -4.503053 8.246758 4.382459 1.092182 -7.986798 51.908356 -1.379057 -8.656386 1.715803 0.054770 0.374550 0.180070 -5.186789 1.002943 -7.357255 14.605016 8.908739 14.922817 -8.997418 11.324156 1.885345 1.600659 -4.949050 -10.021558 -10.148017 15.998526 49.044351 12.321880 7.780560 4.224800 0.446117 11.870726 2.496108 -14.838748 23.720460 -5.809240 13.075221 -21.144696 -1.595686 -3.685051 3.156512 0.646620 0.092130 -0.000290 0.378180 -5.211171 -3.270646 5.829048 7.085700 -11.886701 -3.425415 14.646320 59.728903 8.057148 2.036254 -2.227211 -0.273800 0.193890 -0.309440 -0.153210 
-3.391330 16.256370 -1.138900 -15.800030 -65.524856 -4.040924 -14.957629 13.484394 3.309560 9.048646 2.110344 -31.977266 1.604789 8.958242 34.479826 -0.131205 6.027710 2.454896 0.499690 -0.000770 0.495950 18.115856 -12.095117 3.007102 -4.950404 8.769448 4.003370 -0.833606 -7.022299 54.028417 -1.377377 -8.727659 1.696155 -0.031220 0.354620 0.165920 -4.661655 0.389175 -7.601717 12.716910 8.864209 17.073537 -7.469661 11.503992 -2.026835 1.795807 -4.610221 -10.459974 -9.903508 15.966880 51.285503 11.899810 8.037690 7.699880 1.120347 13.547016 2.264673 -15.131873 25.938254 -6.153058 13.823339 -20.603763 -1.442878 -3.712910 3.132845 0.650750 0.081560 -0.007090 0.347160 -6.049374 -4.136320 6.228384 10.182463 -14.510059 -5.036596 2.030956 62.708589 2.462859 2.070054 -2.158817 -0.274950 0.147440 -0.297550 -0.165840 
-3.389280 16.227200 -1.117880 -17.409284 -66.674852 -2.470468 -14.973077 13.601947 3.504737 10.146141 2.062314 -32.839300 1.258814 9.491112 36.001220 0.018898 6.349263 2.328939 0.482860 0.010500 0.489560 18.097718 -11.898432 2.966619 -4.503919 8.514635 3.393699 -1.798940 -6.597030 54.902771 -1.405704 -8.695391 1.732381 -0.074700 0.305790 0.152840 -4.363023 -0.195971 -7.825135 12.972741 7.868360 19.406206 -7.956042 11.140678 -5.905368 2.396918 -4.598674 -11.202005 -10.780571 16.204300 54.087963 11.054870 8.427770 9.670210 1.337438 14.452482 1.790632 -15.024360 24.906455 -5.619538 13.760121 -16.009237 -0.967122 -3.713418 2.982111 0.641500 0.055150 0.041710 0.352970 -7.297784 -4.501264 6.982145 13.367082 -16.996772 -6.391552 -5.566198 61.599575 -0.791749 2.099098 -2.078404 -0.229550 0.118630 -0.332870 -0.144120 
-3.350800 16.216850 -1.119060 -17.359724 -67.399927 -1.570719 -14.988525 13.544941 3.622252 10.058755 1.286000 -33.426994 1.057946 9.110910 35.429689 0.042499 6.145873 2.365919 0.549980 0.085500 0.531820 18.095424 -11.863967 2.881502 -5.065944 8.232072 1.485557 -2.214521 -6.657078 55.652929 -1.438293 -8.734413 1.687543 -0.070420 0.229070 0.223960 -4.392203 -0.333686 -7.836037 13.077131 6.891678 19.520213 -8.669078 10.146072 -6.502631 2.735016 -4.586307 -10.614533 -11.162849 16.269684 54.525998 9.305260 9.450350 9.342880 0.114784 15.435209 1.110925 -16.586486 23.494368 -5.718067 14.860740 -13.274321 -0.915103 -3.724577 3.013670 0.620470 0.039000 0.100310 0.364370 -6.896640 -6.134461 6.673983 18.496365 -18.953414 -8.968582 -15.549432 61.324833 -5.357029 2.077319 -2.043195 -0.135220 0.019650 -0.378550 -0.132160 
-3.294100 16.223020 -1.179840 -18.381474 -67.949581 0.159592 -15.003680 13.438927 3.751554 11.305177 0.950326 -33.747597 -0.634370 9.173976 33.667951 0.114244 5.870076 2.379313 0.724070 0.285440 0.667710 18.108204 -11.789780 2.821273 -4.814977 7.599733 -0.099151 -2.500713 -6.635683 55.446853 -1.525603 -8.620195 1.664318 -0.046310 0.052960 0.362360 -4.438788 -0.457692 -7.870029 13.090618 5.269914 20.069244 -9.549355 8.566469 -6.909921 3.020307 -4.545737 -10.321777 -11.512072 16.610031 56.587101 6.756490 11.432560 6.796880 -0.218034 16.154798 0.673407 -19.568921 21.381244 -6.010225 15.503749 -8.336210 -0.643910 -3.699328 3.061275 0.612880 -0.027410 0.265760 0.387690 -7.203221 -7.508719 6.389183 26.643593 -16.814286 -11.883160 -26.789175 59.105910 -10.003749 2.077054 -1.954705 0.062980 -0.144620 -0.493190 -0.107400 
-3.225460 16.243400 -1.269390 -19.458209 -68.976879 2.696740 -15.043763 13.434451 3.809641 12.385492 0.859751 -33.989947 -1.483464 8.674888 30.336019 0.014498 5.366785 2.548397 0.790660 0.356130 0.748890 18.097831 -11.665344 2.777366 -4.170249 7.046550 -2.203224 -2.978572 -6.123666 54.350547 -1.500861 -8.285879 1.744490 -0.007080 -0.007730 0.351420 -4.186983 -0.785962 -7.901878 10.935641 4.764898 20.309420 -7.710296 7.905857 -7.429178 2.561561 -4.601693 -9.802540 -11.987554 17.346368 57.166291 6.240240 12.738130 4.632300 0.208219 17.237305 0.564146 -24.352845 20.448912 -7.223682 15.023988 -8.283091 -0.808445 -3.626909 3.003404 0.673780 -0.077570 0.333250 0.404360 -6.478239 -8.898893 5.566235 33.053420 -14.528512 -13.649544 -36.882254 54.363062 -13.176523 2.108274 -1.767193 0.056370 -0.126760 -0.553170 -0.128230 
